<svg width="318" height="69" viewBox="0 0 318 69" fill="none" xmlns="http://www.w3.org/2000/svg">
<path fill-rule="evenodd" clip-rule="evenodd" d="M34.5 60.72C48.9809 60.72 60.72 48.9809 60.72 34.5C60.72 20.0191 48.9809 8.28 34.5 8.28C20.0191 8.28 8.28 20.0191 8.28 34.5C8.28 48.9809 20.0191 60.72 34.5 60.72ZM34.5 69C53.5538 69 69 53.5538 69 34.5C69 15.4462 53.5538 0 34.5 0C15.4462 0 0 15.4462 0 34.5C0 53.5538 15.4462 69 34.5 69Z" fill="url(#paint0_linear_489_502)"/>
<path fill-rule="evenodd" clip-rule="evenodd" d="M65.0897 45.806C47.4486 39.5637 24.9897 39.0067 3.87369 45.8184L3.02637 43.1916C24.6903 36.2033 47.7714 36.7503 66.0103 43.2041L65.0897 45.806Z" fill="url(#paint1_linear_489_502)"/>
<path fill-rule="evenodd" clip-rule="evenodd" d="M65.0897 35.4559C47.4486 29.2136 24.9897 28.6566 3.87369 35.4683L3.02637 32.8415C24.6903 25.8532 47.7714 26.4002 66.0103 32.8539L65.0897 35.4559Z" fill="url(#paint2_linear_489_502)"/>
<path d="M21.0448 30.015L2.06982 34.5V35.19L4.13982 44.505L10.3498 42.435L23.8048 40.365L33.1198 39.675L47.6098 40.365L58.9948 43.125L66.5848 44.505V35.19L61.0648 32.085L41.7448 28.98L21.0448 30.015Z" fill="url(#paint3_linear_489_502)"/>
<path fill-rule="evenodd" clip-rule="evenodd" d="M28.3277 45.7587C26.5205 41.0507 23.751 38.6264 21.3898 38.017L20.7002 40.6895C21.904 41.0001 24.137 42.5433 25.751 46.7478C27.3531 50.9212 28.2828 57.6004 26.9221 67.8059L29.6579 68.1706C31.0572 57.6761 30.1469 50.4978 28.3277 45.7587Z" fill="url(#paint4_linear_489_502)"/>
<path fill-rule="evenodd" clip-rule="evenodd" d="M40.9965 45.7587C42.8037 41.0507 45.5732 38.6264 47.9344 38.017L48.624 40.6895C47.4202 41.0001 45.1872 42.5433 43.5732 46.7478C41.9711 50.9212 41.0414 57.6004 42.4021 67.8059L39.6663 68.1706C38.267 57.6761 39.1773 50.4978 40.9965 45.7587Z" fill="url(#paint5_linear_489_502)"/>
<path d="M22.77 39.6982C29.946 35.2822 42.55 37.8582 47.955 39.6982L44.16 42.4582L41.4 50.7382L40.365 60.3983V64.1932L29.325 64.8832V61.0882L27.6 46.5983L22.77 39.6982Z" fill="url(#paint6_linear_489_502)"/>
<path d="M82.3488 47.0196L84.4674 40.3154H95.5625L97.6811 47.0196H106.03L95.1859 15.0892H84.844L74 47.0196H82.3488ZM86.3192 34.4532L89.8816 23.1342H90.1327L93.7107 34.4532H86.3192Z" fill="#F5F6FA"/>
<path d="M125.042 36.6827C125.042 39.4735 123.253 41.0326 120.978 41.0326C118.624 41.0326 117.18 39.4423 117.164 36.8386V23.0718H109.49V38.3354C109.506 43.7455 112.817 47.3314 117.776 47.3314C121.386 47.3314 124.069 45.4917 125.136 42.5606H125.388V47.0196H132.701V23.0718H125.042V36.6827Z" fill="#F5F6FA"/>
<path d="M151.191 23.0719H146.844V17.3344H139.17V23.0719H135.984V28.6847H139.17V40.3311C139.123 45.1799 142.293 47.612 147.707 47.3626C149.559 47.2691 150.893 46.8949 151.631 46.6767L150.469 41.1731C150.14 41.251 149.371 41.4069 148.79 41.4069C147.55 41.4069 146.844 40.908 146.844 39.4892V28.6847H151.191V23.0719Z" fill="#F5F6FA"/>
<path d="M166.1 47.4717C173.68 47.4717 178.278 42.4982 178.278 35.1236C178.278 27.7335 173.68 22.76 166.1 22.76C158.52 22.76 153.922 27.7335 153.922 35.1236C153.922 42.4982 158.52 47.4717 166.1 47.4717ZM166.147 41.7186C163.306 41.7186 161.737 39.037 161.737 35.0769C161.737 31.1012 163.306 28.4039 166.147 28.4039C168.893 28.4039 170.462 31.1012 170.462 35.0769C170.462 39.037 168.893 41.7186 166.147 41.7186Z" fill="#F5F6FA"/>
<path d="M182.209 56H189.883V43.1374H190.04C191.013 45.3513 193.178 47.3626 196.819 47.3626C202.155 47.3626 206.455 43.2154 206.455 35.0613C206.455 26.611 201.904 22.76 196.866 22.76C193.053 22.76 190.966 24.9739 190.04 27.1722H189.804V23.0718H182.209V56ZM189.726 35.0457C189.726 31.1323 191.358 28.7157 194.167 28.7157C197.008 28.7157 198.577 31.1947 198.577 35.0457C198.577 38.9123 197.008 41.4224 194.167 41.4224C191.358 41.4224 189.726 38.9278 189.726 35.0457Z" fill="#F5F6FA"/>
<path d="M210.476 47.0196H218.15V23.0718H210.476V47.0196ZM214.321 20.281C216.503 20.281 218.26 18.6439 218.26 16.6327C218.26 14.6215 216.503 13 214.321 13C212.156 13 210.382 14.6215 210.382 16.6327C210.382 18.6439 212.156 20.281 214.321 20.281Z" fill="#F5F6FA"/>
<path d="M230.709 15.0892H223.035V47.0196H230.709V15.0892Z" fill="#F5F6FA"/>
<path d="M246.845 47.4717C254.425 47.4717 259.023 42.4982 259.023 35.1236C259.023 27.7335 254.425 22.76 246.845 22.76C239.266 22.76 234.667 27.7335 234.667 35.1236C234.667 42.4982 239.266 47.4717 246.845 47.4717ZM246.893 41.7186C244.052 41.7186 242.483 39.037 242.483 35.0769C242.483 31.1012 244.052 28.4039 246.893 28.4039C249.639 28.4039 251.208 31.1012 251.208 35.0769C251.208 39.037 249.639 41.7186 246.893 41.7186Z" fill="#F5F6FA"/>
<path d="M276.561 23.0719H272.214V17.3344H264.54V23.0719H261.354V28.6847H264.54V40.3311C264.492 45.1799 267.663 47.612 273.077 47.3626C274.928 47.2691 276.262 46.8949 277 46.6767L275.839 41.1731C275.509 41.251 274.74 41.4069 274.16 41.4069C272.92 41.4069 272.214 40.908 272.214 39.4892V28.6847H276.561V23.0719Z" fill="#F5F6FA"/>
<path d="M282.959 43.9999H284.203V42.9814H284.31C284.54 43.399 285.009 44.1277 286.202 44.1277C287.787 44.1277 288.938 42.8579 288.938 40.74C288.938 38.6178 287.77 37.3692 286.189 37.3692C284.974 37.3692 284.536 38.1107 284.31 38.5155H284.233V35.2726H282.959V43.9999ZM284.207 40.7272C284.207 39.3593 284.804 38.4516 285.916 38.4516C287.071 38.4516 287.651 39.4275 287.651 40.7272C287.651 42.0397 287.054 43.0411 285.916 43.0411C284.821 43.0411 284.207 42.1036 284.207 40.7272ZM290.939 46.4544C291.992 46.4544 292.657 45.9047 293.036 44.8735L295.742 37.4672L294.365 37.4544L292.708 42.534H292.64L290.982 37.4544H289.618L292.013 44.0851L291.855 44.5198C291.532 45.3891 291.076 45.4615 290.377 45.2698L290.07 46.3138C290.223 46.382 290.556 46.4544 290.939 46.4544ZM299.986 43.9999H301.801V37.4544H299.986V43.9999ZM300.898 36.6107C301.439 36.6107 301.882 36.1973 301.882 35.6902C301.882 35.1874 301.439 34.774 300.898 34.774C300.361 34.774 299.918 35.1874 299.918 35.6902C299.918 36.1973 300.361 36.6107 300.898 36.6107ZM303.256 43.9999H305.071V40.2968C305.071 39.4914 305.659 38.9374 306.46 38.9374C306.712 38.9374 307.057 38.98 307.227 39.0354V37.4246C307.065 37.3863 306.839 37.3607 306.656 37.3607C305.923 37.3607 305.322 37.7868 305.084 38.5965H305.016V37.4544H303.256V43.9999ZM308.166 43.9999H309.981V37.4544H308.166V43.9999ZM309.078 36.6107C309.619 36.6107 310.062 36.1973 310.062 35.6902C310.062 35.1874 309.619 34.774 309.078 34.774C308.541 34.774 308.098 35.1874 308.098 35.6902C308.098 36.1973 308.541 36.6107 309.078 36.6107ZM316.881 39.3209C316.719 38.115 315.748 37.3692 314.094 37.3692C312.42 37.3692 311.316 38.1448 311.32 39.4061C311.316 40.3863 311.934 41.0212 313.212 41.2769L314.346 41.5027C314.917 41.6178 315.177 41.8266 315.185 42.1547C315.177 42.5425 314.755 42.8195 314.12 42.8195C313.472 42.8195 313.042 42.5425 312.931 42.0098L311.146 42.1036C311.316 43.3564 312.381 44.1277 314.116 44.1277C315.812 44.1277 317.026 43.2627 317.031 41.9715C317.026 41.0255 316.408 40.4587 315.138 40.1988L313.954 39.9601C313.344 39.828 313.119 39.6192 313.123 39.3039C313.119 38.9118 313.562 38.6561 314.124 38.6561C314.755 38.6561 315.13 39.0013 315.219 39.4232L316.881 39.3209Z" fill="#9E9E9E"/>
<defs>
<linearGradient id="paint0_linear_489_502" x1="-6.9" y1="6.43641e-07" x2="81.075" y2="95.91" gradientUnits="userSpaceOnUse">
<stop offset="0.102821" stop-color="#47E9FF"/>
<stop offset="0.928468" stop-color="#C82CFF"/>
</linearGradient>
<linearGradient id="paint1_linear_489_502" x1="-6.89997" y1="2.69425e-05" x2="81.075" y2="95.91" gradientUnits="userSpaceOnUse">
<stop offset="0.102821" stop-color="#47E9FF"/>
<stop offset="0.928468" stop-color="#C82CFF"/>
</linearGradient>
<linearGradient id="paint2_linear_489_502" x1="-6.89997" y1="-6.11869e-05" x2="81.075" y2="95.9099" gradientUnits="userSpaceOnUse">
<stop offset="0.102821" stop-color="#47E9FF"/>
<stop offset="0.928468" stop-color="#C82CFF"/>
</linearGradient>
<linearGradient id="paint3_linear_489_502" x1="-6.90017" y1="-2.52302e-05" x2="81.0748" y2="95.91" gradientUnits="userSpaceOnUse">
<stop offset="0.102821" stop-color="#47E9FF"/>
<stop offset="0.928468" stop-color="#C82CFF"/>
</linearGradient>
<linearGradient id="paint4_linear_489_502" x1="-6.9" y1="-3.73658e-05" x2="81.075" y2="95.91" gradientUnits="userSpaceOnUse">
<stop offset="0.102821" stop-color="#47E9FF"/>
<stop offset="0.928468" stop-color="#C82CFF"/>
</linearGradient>
<linearGradient id="paint5_linear_489_502" x1="-6.89994" y1="-3.89323e-05" x2="81.0751" y2="95.91" gradientUnits="userSpaceOnUse">
<stop offset="0.102821" stop-color="#47E9FF"/>
<stop offset="0.928468" stop-color="#C82CFF"/>
</linearGradient>
<linearGradient id="paint6_linear_489_502" x1="-6.89998" y1="-1.0995e-05" x2="81.075" y2="95.91" gradientUnits="userSpaceOnUse">
<stop offset="0.102821" stop-color="#47E9FF"/>
<stop offset="0.928468" stop-color="#C82CFF"/>
</linearGradient>
</defs>
</svg>
