<svg width="17" height="24" viewBox="0 0 17 24" fill="none" xmlns="http://www.w3.org/2000/svg">
<path d="M7.97159 11.0906C7.93273 11.4042 7.85444 11.8324 7.73673 12.375C7.62144 12.8981 7.47523 13.467 7.2981 14.0819C7.1234 14.6772 6.89657 15.286 6.61761 15.9081C6.36592 16.5138 6.08304 17.0658 5.76895 17.5642C5.45729 18.043 5.10685 18.4275 4.71765 18.7176C4.33087 18.9881 3.91383 19.0956 3.46651 19.0402C2.9198 18.9724 2.47314 18.7081 2.12653 18.2472C1.80721 17.7698 1.55095 17.1908 1.35774 16.5101C1.19182 15.8129 1.0841 15.0532 1.03459 14.2311C0.985069 13.409 0.9704 12.6112 0.990578 11.8375C1.01319 11.0443 1.05214 10.3227 1.10745 9.67279C1.19003 9.00638 1.25319 8.49677 1.29691 8.14396C1.34063 7.79115 1.39528 7.35015 1.46087 6.82094C1.52888 6.27212 1.62538 5.69699 1.75038 5.09554C1.90023 4.49717 2.07372 3.91167 2.27084 3.33906C2.49525 2.74993 2.77449 2.22729 3.10857 1.77116C3.44266 1.31502 3.85157 0.967672 4.33532 0.729099C4.8215 0.470927 5.40008 0.383416 6.07105 0.466566C6.66747 0.540478 7.12655 0.806335 7.44831 1.26414C7.79734 1.70542 8.0436 2.26333 8.18711 2.93786C8.35789 3.59586 8.4444 4.32304 8.44664 5.11937C8.47374 5.91878 8.45234 6.70224 8.38246 7.46973C8.33986 8.22071 8.26606 8.91806 8.16105 9.56179C8.0809 10.2086 8.01774 10.7182 7.97159 11.0906Z" fill="black"/>
<circle cx="3.73868" cy="21.7379" r="2.26212" fill="black"/>
<path d="M15.2632 14.2659C15.2339 14.5023 15.1748 14.8252 15.0861 15.2343C14.9992 15.6287 14.8889 16.0578 14.7553 16.5214C14.6236 16.9703 14.4526 17.4293 14.2422 17.8985C14.0524 18.3551 13.8391 18.7714 13.6023 19.1472C13.3673 19.5083 13.1031 19.7982 12.8096 20.0169C12.5179 20.2209 12.2035 20.3019 11.8662 20.2601C11.4539 20.2091 11.1171 20.0097 10.8558 19.6622C10.615 19.3022 10.4218 18.8656 10.2761 18.3524C10.151 17.8266 10.0697 17.2538 10.0324 16.6339C9.99506 16.014 9.984 15.4124 9.99921 14.829C10.0163 14.2309 10.0456 13.6868 10.0873 13.1968C10.1496 12.6943 10.1972 12.31 10.2302 12.044C10.2632 11.7779 10.3044 11.4454 10.3538 11.0463C10.4051 10.6325 10.4779 10.1988 10.5721 9.74532C10.6851 9.29412 10.8159 8.85264 10.9646 8.42086C11.1338 7.97663 11.3444 7.58254 11.5963 7.2386C11.8482 6.89466 12.1565 6.63274 12.5213 6.45285C12.8879 6.25817 13.3242 6.19219 13.8301 6.25489C14.2798 6.31062 14.626 6.51109 14.8686 6.85629C15.1318 7.18903 15.3175 7.60972 15.4257 8.11834C15.5545 8.6145 15.6197 9.16282 15.6214 9.76329C15.6418 10.3661 15.6257 10.9568 15.573 11.5356C15.5409 12.1018 15.4852 12.6277 15.406 13.1131C15.3456 13.6008 15.298 13.985 15.2632 14.2659Z" fill="black"/>
<circle cx="11.823" cy="22.492" r="1.50808" fill="black"/>
</svg>
