<svg width="20" height="24" viewBox="0 0 20 24" fill="none" xmlns="http://www.w3.org/2000/svg">
<path d="M9.46173 3.375C9.46173 4.4125 9.43539 5.45625 9.38272 6.50625C9.33004 7.54375 9.2642 8.58125 9.18519 9.61875C9.17202 9.80625 9.15885 10.0625 9.14568 10.3875C9.13251 10.7 9.10617 11.0437 9.06667 11.4187C9.02716 11.7812 8.97449 12.15 8.90864 12.525C8.8428 12.9 8.73745 13.2437 8.59259 13.5562C8.46091 13.8562 8.28313 14.1 8.05926 14.2875C7.84856 14.4875 7.58519 14.5875 7.26914 14.5875C6.99259 14.5875 6.74239 14.5312 6.51852 14.4187C6.30782 14.3062 6.13004 14.1625 5.98519 13.9875C5.84033 13.8 5.7284 13.5937 5.64938 13.3687C5.57037 13.1312 5.53086 12.8875 5.53086 12.6375C5.53086 12.225 5.54403 11.8125 5.57037 11.4C5.59671 10.975 5.63621 10.5562 5.68889 10.1437L3.73333 10.3312C3.69383 10.6562 3.64774 11.05 3.59506 11.5125C3.55556 11.9625 3.46337 12.4 3.31852 12.825C3.18683 13.2375 2.98272 13.5937 2.70617 13.8937C2.42963 14.1937 2.04774 14.3437 1.56049 14.3437C1.25761 14.3437 1.00741 14.275 0.809877 14.1375C0.612346 14.0125 0.454321 13.85 0.335802 13.65C0.217284 13.4375 0.131687 13.2062 0.0790124 12.9562C0.0263375 12.7062 0 12.4687 0 12.2437C0 11.4937 0.0329218 10.75 0.0987654 10.0125C0.164609 9.2625 0.2107 8.5125 0.237037 7.7625C0.263375 6.975 0.269959 6.1875 0.25679 5.4C0.25679 4.6 0.269959 3.8 0.296296 3C0.309465 2.7375 0.316049 2.43125 0.316049 2.08125C0.329218 1.73125 0.375309 1.40625 0.454321 1.10625C0.546502 0.79375 0.691358 0.53125 0.888889 0.31875C1.09959 0.10625 1.40905 0 1.81728 0C2.38354 0 2.81152 0.14375 3.10123 0.43125C3.39095 0.70625 3.59506 1.05625 3.71358 1.48125C3.8321 1.89375 3.89136 2.3375 3.89136 2.8125C3.89136 3.275 3.89136 3.69375 3.89136 4.06875C3.89136 4.56875 3.87819 5.0625 3.85185 5.55C3.82551 6.025 3.79918 6.50625 3.77284 6.99375L5.88642 6.69375C5.89959 6.08125 5.91276 5.475 5.92593 4.875C5.9391 4.275 5.96543 3.675 6.00494 3.075C6.01811 2.7875 6.03128 2.48125 6.04444 2.15625C6.05761 1.83125 6.11029 1.53125 6.20247 1.25625C6.29465 0.98125 6.44609 0.75625 6.65679 0.58125C6.88066 0.39375 7.20988 0.3 7.64444 0.3C8.01317 0.3 8.30947 0.4 8.53333 0.6C8.77037 0.8 8.95473 1.04375 9.08642 1.33125C9.23128 1.61875 9.33004 1.925 9.38272 2.25C9.43539 2.575 9.46173 2.86875 9.46173 3.13125V3.375Z" fill="black"/>
<path d="M19.2 11.55C19.2 11.8 19.1737 12.1 19.121 12.45C19.0815 12.8 18.9959 13.1375 18.8642 13.4625C18.7325 13.775 18.5547 14.0437 18.3309 14.2687C18.107 14.4812 17.8107 14.5875 17.442 14.5875C16.9547 14.5875 16.586 14.4187 16.3358 14.0812C16.0988 13.7437 15.9276 13.3437 15.8222 12.8812C15.7169 12.4062 15.651 11.925 15.6247 11.4375C15.6115 10.95 15.5984 10.5625 15.5852 10.275C14.637 10.425 13.7021 10.5562 12.7802 10.6687C12.7539 10.9562 12.6947 11.3125 12.6025 11.7375C12.5235 12.1625 12.3918 12.575 12.2074 12.975C12.0362 13.3625 11.8058 13.7 11.5161 13.9875C11.2395 14.275 10.8971 14.4187 10.4889 14.4187C10.1728 14.4187 9.92263 14.3125 9.73827 14.1C9.56708 13.875 9.43539 13.6125 9.34321 13.3125C9.25103 13.0125 9.19177 12.7062 9.16543 12.3937C9.15226 12.0687 9.14568 11.8 9.14568 11.5875C9.14568 10.875 9.20494 10.175 9.32346 9.4875C9.44198 8.7875 9.58025 8.09375 9.73827 7.40625C9.81728 7.04375 9.92263 6.61875 10.0543 6.13125C10.186 5.64375 10.344 5.14375 10.5284 4.63125C10.7259 4.10625 10.9498 3.59375 11.2 3.09375C11.4634 2.58125 11.7597 2.125 12.0889 1.725C12.4181 1.325 12.7934 1 13.2148 0.75C13.6362 0.5 14.1037 0.375 14.6173 0.375C15.1177 0.375 15.5523 0.48125 15.921 0.69375C16.2897 0.90625 16.6123 1.1875 16.8889 1.5375C17.1654 1.8875 17.3959 2.2875 17.5802 2.7375C17.7646 3.175 17.9161 3.625 18.0346 4.0875C18.1663 4.5375 18.2716 4.98125 18.3506 5.41875C18.4428 5.85625 18.5218 6.24375 18.5877 6.58125C18.7588 7.39375 18.9037 8.21875 19.0222 9.05625C19.1407 9.88125 19.2 10.7125 19.2 11.55ZM15.3877 6.99375C15.3877 6.84375 15.3745 6.6 15.3481 6.2625C15.335 5.9125 15.2955 5.56875 15.2296 5.23125C15.1638 4.88125 15.0584 4.575 14.9136 4.3125C14.7819 4.0375 14.5975 3.9 14.3605 3.9C14.2288 3.9 14.1037 3.9875 13.9852 4.1625C13.8667 4.325 13.7613 4.5375 13.6691 4.8C13.577 5.05 13.4914 5.33125 13.4123 5.64375C13.3465 5.95625 13.2872 6.25625 13.2346 6.54375C13.1819 6.83125 13.1424 7.09375 13.1161 7.33125C13.0897 7.55625 13.07 7.71875 13.0568 7.81875C13.8469 7.75625 14.6239 7.6625 15.3877 7.5375V6.99375Z" fill="black"/>
<path d="M9.49506 16.621C9.49506 17.3038 9.47754 17.9906 9.4425 18.6817C9.40745 19.3644 9.36364 20.0472 9.31108 20.73C9.30232 20.8534 9.29356 21.022 9.2848 21.2359C9.27603 21.4415 9.25851 21.6678 9.23223 21.9146C9.20595 22.1531 9.1709 22.3958 9.12709 22.6426C9.08329 22.8894 9.0132 23.1156 8.91683 23.3212C8.82922 23.5187 8.71094 23.6791 8.562 23.8025C8.42182 23.9341 8.2466 23.9999 8.03633 23.9999C7.85235 23.9999 7.68589 23.9629 7.53695 23.8888C7.39677 23.8148 7.2785 23.7202 7.18213 23.605C7.08575 23.4816 7.01128 23.3459 6.95872 23.1978C6.90615 23.0415 6.87987 22.8811 6.87987 22.7166C6.87987 22.4451 6.88863 22.1737 6.90615 21.9022C6.92367 21.6225 6.94996 21.3469 6.985 21.0755L5.68397 21.1989C5.65769 21.4128 5.62703 21.6719 5.59198 21.9763C5.5657 22.2724 5.50437 22.5603 5.408 22.84C5.32039 23.1115 5.18459 23.3459 5.00061 23.5433C4.81662 23.7408 4.56255 23.8395 4.23839 23.8395C4.03688 23.8395 3.87042 23.7942 3.739 23.7038C3.60759 23.6215 3.50245 23.5146 3.4236 23.3829C3.34475 23.2431 3.28781 23.0909 3.25276 22.9264C3.21772 22.7619 3.2002 22.6056 3.2002 22.4575C3.2002 21.9639 3.2221 21.4745 3.2659 20.9891C3.30971 20.4955 3.34037 20.002 3.3579 19.5084C3.37542 18.9901 3.3798 18.4719 3.37104 17.9536C3.37104 17.4272 3.3798 16.9007 3.39732 16.3742C3.40608 16.2014 3.41046 15.9999 3.41046 15.7696C3.41922 15.5392 3.44989 15.3254 3.50245 15.1279C3.56378 14.9223 3.66015 14.7495 3.79157 14.6097C3.93175 14.4698 4.13764 14.3999 4.40923 14.3999C4.78596 14.3999 5.0707 14.4945 5.26344 14.6837C5.45618 14.8647 5.59198 15.095 5.67083 15.3747C5.74968 15.6462 5.78911 15.9382 5.78911 16.2508C5.78911 16.5552 5.78911 16.8308 5.78911 17.0775C5.78911 17.4066 5.78035 17.7315 5.76282 18.0523C5.7453 18.3649 5.72778 18.6817 5.71026 19.0025L7.11642 18.805C7.12518 18.402 7.13394 18.003 7.1427 17.6081C7.15146 17.2133 7.16898 16.8184 7.19527 16.4236C7.20403 16.2343 7.21279 16.0328 7.22155 15.8189C7.23031 15.605 7.26536 15.4076 7.32668 15.2266C7.38801 15.0457 7.48876 14.8976 7.62894 14.7824C7.77788 14.659 7.99691 14.5973 8.28603 14.5973C8.53134 14.5973 8.72846 14.6631 8.8774 14.7948C9.0351 14.9264 9.15776 15.0868 9.24537 15.276C9.34174 15.4652 9.40745 15.6667 9.4425 15.8806C9.47754 16.0945 9.49506 16.2878 9.49506 16.4606V16.621Z" fill="black"/>
<path d="M16.0002 22.0009C16.0002 22.1655 15.9827 22.3629 15.9476 22.5932C15.9213 22.8236 15.8644 23.0457 15.7768 23.2595C15.6892 23.4652 15.5709 23.6421 15.422 23.7901C15.273 23.93 15.0759 23.9999 14.8306 23.9999C14.5064 23.9999 14.2611 23.8888 14.0947 23.6667C13.937 23.4446 13.8231 23.1814 13.753 22.877C13.6829 22.5644 13.6391 22.2477 13.6215 21.9269C13.6128 21.6061 13.604 21.3511 13.5953 21.1619C12.9645 21.2606 12.3424 21.3469 11.7291 21.421C11.7116 21.6102 11.6722 21.8446 11.6109 22.1243C11.5583 22.404 11.4707 22.6755 11.348 22.9387C11.2341 23.1937 11.0808 23.4158 10.8881 23.605C10.7041 23.7942 10.4763 23.8888 10.2047 23.8888C9.99445 23.8888 9.82798 23.8189 9.70533 23.6791C9.59143 23.531 9.50382 23.3583 9.44249 23.1608C9.38117 22.9634 9.34174 22.7619 9.32422 22.5562C9.31546 22.3423 9.31108 22.1655 9.31108 22.0256C9.31108 21.5567 9.3505 21.096 9.42935 20.6436C9.5082 20.1829 9.6002 19.7264 9.70533 19.2739C9.7579 19.0354 9.82798 18.7557 9.9156 18.4349C10.0032 18.114 10.1083 17.785 10.231 17.4477C10.3624 17.1022 10.5114 16.7649 10.6778 16.4359C10.853 16.0986 11.0502 15.7984 11.2692 15.5351C11.4882 15.2719 11.7379 15.058 12.0183 14.8935C12.2986 14.729 12.6096 14.6467 12.9513 14.6467C13.2842 14.6467 13.5734 14.7166 13.8187 14.8565C14.064 14.9963 14.2786 15.1814 14.4626 15.4117C14.6466 15.6421 14.7999 15.9053 14.9226 16.2014C15.0452 16.4894 15.146 16.7855 15.2248 17.0899C15.3124 17.386 15.3825 17.6781 15.4351 17.966C15.4964 18.2539 15.549 18.5089 15.5928 18.731C15.7067 19.2657 15.8031 19.8086 15.8819 20.3598C15.9608 20.9027 16.0002 21.4498 16.0002 22.0009ZM13.4639 19.0025C13.4639 18.9038 13.4551 18.7433 13.4376 18.5212C13.4288 18.2909 13.4025 18.0647 13.3587 17.8426C13.3149 17.6122 13.2448 17.4107 13.1484 17.2379C13.0608 17.057 12.9382 16.9665 12.7805 16.9665C12.6929 16.9665 12.6096 17.0241 12.5308 17.1392C12.4519 17.2462 12.3819 17.386 12.3205 17.5588C12.2592 17.7233 12.2022 17.9084 12.1497 18.114C12.1059 18.3197 12.0665 18.5171 12.0314 18.7063C11.9964 18.8955 11.9701 19.0683 11.9526 19.2246C11.935 19.3727 11.9219 19.4796 11.9131 19.5454C12.4388 19.5043 12.9557 19.4426 13.4639 19.3603V19.0025Z" fill="black"/>
</svg>
