<svg width="18" height="25" viewBox="0 0 18 25" fill="none" xmlns="http://www.w3.org/2000/svg">
<path d="M8.93072 20.3191C8.21203 20.3191 7.60056 20.5455 7.09369 20.9995C6.58644 21.4536 6.33301 22.005 6.33301 22.6514C6.33301 23.3832 6.58944 23.9564 7.10156 24.3741C7.61555 24.7913 8.21203 25.0001 8.89623 25.0001C9.59205 25.0001 10.1983 24.7943 10.7171 24.3816C11.236 23.9699 11.4939 23.3937 11.4939 22.6517C11.4939 22.005 11.2465 21.4539 10.7513 20.9999C10.2549 20.5455 9.64866 20.3191 8.93072 20.3191" fill="black"/>
<mask id="path-2-outside-1" maskUnits="userSpaceOnUse" x="0" y="0" width="18" height="20" fill="black">
<rect fill="white" width="18" height="20"/>
<path d="M16.256 4.24892C15.5976 3.24793 14.6548 2.44526 13.4517 1.8664C12.2572 1.29018 10.8656 1 9.31275 1C7.64218 1 6.15568 1.34904 4.896 2.03848C3.6337 2.72756 2.66083 3.61233 2.00024 4.67031C1.33516 5.73167 1 6.79864 1 7.84238C1 8.40098 1.23094 8.92098 1.68645 9.38848C2.14421 9.85861 2.71406 10.097 3.37914 10.097C4.51135 10.097 5.2874 9.42972 5.68143 8.12468C6.04021 7.04233 6.48222 6.21867 6.99359 5.67243C7.47497 5.15806 8.25552 4.89788 9.31312 4.89788C10.2253 4.89788 10.9447 5.15356 11.5157 5.67993C12.078 6.2003 12.3513 6.82114 12.3513 7.57619C12.3548 7.94182 12.2626 8.30198 12.084 8.62105C11.8943 8.96175 11.6581 9.27441 11.3822 9.55006C11.0898 9.84249 10.6077 10.2838 9.94859 10.8596C9.18078 11.5326 8.56107 12.1238 8.10856 12.6115C7.63006 13.1338 7.24572 13.735 6.9726 14.3886C6.6873 15.0649 6.54296 15.8702 6.54296 16.7831C6.54296 17.5633 6.7604 18.1672 7.19042 18.5789C7.61593 18.9875 8.14567 19.1949 8.76614 19.1949C9.95234 19.1949 10.6973 18.5466 10.9185 17.3342C11.0332 16.83 11.1168 16.4775 11.1734 16.2762C11.2248 16.094 11.299 15.9073 11.3946 15.7206C11.4872 15.5399 11.6342 15.3341 11.831 15.1076C12.0368 14.8711 12.3169 14.5918 12.6584 14.2802C13.9364 13.1383 14.8377 12.3109 15.3378 11.8212C15.8537 11.3155 16.3036 10.71 16.6766 10.0194C17.0575 9.31088 17.2513 8.47896 17.2513 7.54583C17.2506 6.36338 16.9154 5.25516 16.2537 4.25004"/>
</mask>
<path d="M16.256 4.24892C15.5976 3.24793 14.6548 2.44526 13.4517 1.8664C12.2572 1.29018 10.8656 1 9.31275 1C7.64218 1 6.15568 1.34904 4.896 2.03848C3.6337 2.72756 2.66083 3.61233 2.00024 4.67031C1.33516 5.73167 1 6.79864 1 7.84238C1 8.40098 1.23094 8.92098 1.68645 9.38848C2.14421 9.85861 2.71406 10.097 3.37914 10.097C4.51135 10.097 5.2874 9.42972 5.68143 8.12468C6.04021 7.04233 6.48222 6.21867 6.99359 5.67243C7.47497 5.15806 8.25552 4.89788 9.31312 4.89788C10.2253 4.89788 10.9447 5.15356 11.5157 5.67993C12.078 6.2003 12.3513 6.82114 12.3513 7.57619C12.3548 7.94182 12.2626 8.30198 12.084 8.62105C11.8943 8.96175 11.6581 9.27441 11.3822 9.55006C11.0898 9.84249 10.6077 10.2838 9.94859 10.8596C9.18078 11.5326 8.56107 12.1238 8.10856 12.6115C7.63006 13.1338 7.24572 13.735 6.9726 14.3886C6.6873 15.0649 6.54296 15.8702 6.54296 16.7831C6.54296 17.5633 6.7604 18.1672 7.19042 18.5789C7.61593 18.9875 8.14567 19.1949 8.76614 19.1949C9.95234 19.1949 10.6973 18.5466 10.9185 17.3342C11.0332 16.83 11.1168 16.4775 11.1734 16.2762C11.2248 16.094 11.299 15.9073 11.3946 15.7206C11.4872 15.5399 11.6342 15.3341 11.831 15.1076C12.0368 14.8711 12.3169 14.5918 12.6584 14.2802C13.9364 13.1383 14.8377 12.3109 15.3378 11.8212C15.8537 11.3155 16.3036 10.71 16.6766 10.0194C17.0575 9.31088 17.2513 8.47896 17.2513 7.54583C17.2506 6.36338 16.9154 5.25516 16.2537 4.25004" fill="black"/>
<path d="M13.4517 1.8664L13.3431 2.09157L13.3433 2.09168L13.4517 1.8664ZM4.896 2.03848L5.01579 2.25792L5.01603 2.25779L4.896 2.03848ZM2.00024 4.67031L2.21209 4.80306L2.2123 4.80272L2.00024 4.67031ZM1.68645 9.38848L1.86557 9.21408L1.86551 9.21402L1.68645 9.38848ZM5.68143 8.12468L5.44404 8.04599L5.4421 8.05242L5.68143 8.12468ZM6.99359 5.67243L7.1761 5.84329L7.17613 5.84326L6.99359 5.67243ZM11.5157 5.67993L11.6855 5.49643L11.6851 5.49612L11.5157 5.67993ZM12.3513 7.57619L12.1013 7.57619L12.1014 7.57852L12.3513 7.57619ZM12.084 8.62105L11.8659 8.49896L11.8656 8.4994L12.084 8.62105ZM11.3822 9.55006L11.2055 9.37322L11.2054 9.37329L11.3822 9.55006ZM9.94859 10.8596L9.7841 10.6713L9.78381 10.6716L9.94859 10.8596ZM8.10856 12.6115L7.92528 12.4415L7.92423 12.4426L8.10856 12.6115ZM6.9726 14.3886L7.20294 14.4857L7.20327 14.485L6.9726 14.3886ZM7.19042 18.5789L7.36358 18.3986L7.36329 18.3983L7.19042 18.5789ZM10.9185 17.3342L10.6745 17.2787L10.6725 17.2893L10.9185 17.3342ZM11.1734 16.2762L10.9328 16.2084L10.9327 16.2085L11.1734 16.2762ZM11.3946 15.7206L11.1721 15.6066L11.1721 15.6067L11.3946 15.7206ZM11.831 15.1076L11.6424 14.9435L11.6423 14.9436L11.831 15.1076ZM12.6584 14.2802L12.4918 14.0938L12.4899 14.0955L12.6584 14.2802ZM15.3378 11.8212L15.5127 11.9999L15.5129 11.9998L15.3378 11.8212ZM16.6766 10.0194L16.8966 10.1383L16.8968 10.1378L16.6766 10.0194ZM17.2513 7.54583L17.5013 7.54583L17.5013 7.54567L17.2513 7.54583ZM16.4649 4.11155C15.779 3.06867 14.7994 2.23744 13.5601 1.64112L13.3433 2.09168C14.5101 2.65307 15.4163 3.42718 16.0471 4.38629L16.4649 4.11155ZM13.5603 1.64124C12.3265 1.04601 10.8966 0.75 9.31275 0.75V1.25C10.8346 1.25 12.188 1.53434 13.3431 2.09157L13.5603 1.64124ZM9.31275 0.75C7.6072 0.75 6.07813 1.10649 4.77598 1.81918L5.01603 2.25779C6.23324 1.59158 7.67715 1.25 9.31275 1.25V0.75ZM4.77622 1.81905C3.48195 2.52558 2.47477 3.43828 1.78819 4.53791L2.2123 4.80272C2.84688 3.78639 3.78546 2.92954 5.01579 2.25792L4.77622 1.81905ZM1.7884 4.53756C1.10325 5.63094 0.75 6.7433 0.75 7.84238H1.25C1.25 6.85398 1.56708 5.83239 2.21209 4.80306L1.7884 4.53756ZM0.75 7.84238C0.75 8.47711 1.01466 9.05724 1.50739 9.56295L1.86551 9.21402C1.44722 8.78472 1.25 8.32485 1.25 7.84238H0.75ZM1.50733 9.56289C2.0129 10.0821 2.64768 10.347 3.37914 10.347V9.84705C2.78045 9.84705 2.27552 9.63511 1.86557 9.21408L1.50733 9.56289ZM3.37914 10.347C3.99794 10.347 4.53469 10.1632 4.96984 9.79003C5.40126 9.42009 5.71453 8.87997 5.92076 8.19694L5.4421 8.05242C5.2543 8.67443 4.98254 9.12049 4.64437 9.41048C4.30994 9.69725 3.89256 9.84705 3.37914 9.84705V10.347ZM5.91873 8.20334C6.27141 7.1394 6.6988 6.35313 7.1761 5.84329L6.81109 5.50157C6.26565 6.0842 5.80901 6.94526 5.44413 8.04602L5.91873 8.20334ZM7.17613 5.84326C7.5908 5.40016 8.28991 5.14788 9.31312 5.14788V4.64788C8.22113 4.64788 7.35914 4.91597 6.81106 5.50161L7.17613 5.84326ZM9.31312 5.14788C10.1741 5.14788 10.8293 5.38718 11.3462 5.86374L11.6851 5.49612C11.0601 4.91994 10.2765 4.64788 9.31312 4.64788V5.14788ZM11.3459 5.86342C11.8579 6.33719 12.1013 6.89186 12.1013 7.57619H12.6013C12.6013 6.75042 12.2982 6.0634 11.6855 5.49643L11.3459 5.86342ZM12.1014 7.57852C12.1044 7.9006 12.0232 8.21789 11.8659 8.49896L12.3022 8.74315C12.502 8.38608 12.6051 7.98303 12.6013 7.57387L12.1014 7.57852ZM11.8656 8.4994C11.6871 8.81985 11.465 9.11394 11.2055 9.37322L11.5589 9.72691C11.8512 9.43487 12.1014 9.10364 12.3024 8.7427L11.8656 8.4994ZM11.2054 9.37329C10.9192 9.65953 10.4423 10.0963 9.7841 10.6713L10.1131 11.0479C10.7731 10.4712 11.2604 10.0255 11.559 9.72684L11.2054 9.37329ZM9.78381 10.6716C9.01233 11.3478 8.38572 11.9452 7.92528 12.4415L8.29183 12.7816C8.73642 12.3024 9.34924 11.7173 10.1134 11.0476L9.78381 10.6716ZM7.92423 12.4426C7.42622 12.9862 7.02619 13.612 6.74193 14.2922L7.20327 14.485C7.46525 13.8581 7.83391 13.2814 8.29289 12.7804L7.92423 12.4426ZM6.74225 14.2914C6.44122 15.005 6.29296 15.8447 6.29296 16.7831H6.79296C6.79296 15.8956 6.93337 15.1248 7.20294 14.4857L6.74225 14.2914ZM6.29296 16.7831C6.29296 17.6092 6.52419 18.2872 7.01754 18.7595L7.36329 18.3983C6.99662 18.0473 6.79296 17.5174 6.79296 16.7831H6.29296ZM7.01725 18.7592C7.49185 19.215 8.0847 19.4449 8.76614 19.4449V18.9449C8.20665 18.9449 7.74002 18.7601 7.36358 18.3986L7.01725 18.7592ZM8.76614 19.4449C9.40582 19.4449 9.95095 19.2692 10.3678 18.9082C10.7836 18.5482 11.0464 18.0259 11.1644 17.3791L10.6725 17.2893C10.5693 17.855 10.3491 18.263 10.0405 18.5302C9.73309 18.7964 9.31266 18.9449 8.76614 18.9449V19.4449ZM11.1622 17.3897C11.2773 16.884 11.3595 16.538 11.4141 16.3439L10.9327 16.2085C10.8741 16.4171 10.7891 16.7759 10.6747 17.2787L11.1622 17.3897ZM11.414 16.3441C11.4605 16.1793 11.5283 16.008 11.6171 15.8346L11.1721 15.6067C11.0697 15.8067 10.9891 16.0088 10.9328 16.2084L11.414 16.3441ZM11.6171 15.8346C11.6971 15.6785 11.8302 15.4897 12.0197 15.2717L11.6423 14.9436C11.4382 15.1785 11.2773 15.4013 11.1721 15.6066L11.6171 15.8346ZM12.0196 15.2717C12.2167 15.0452 12.4891 14.773 12.8269 14.4649L12.4899 14.0955C12.1446 14.4105 11.8569 14.697 11.6424 14.9435L12.0196 15.2717ZM12.825 14.4667C14.103 13.3247 15.0081 12.4939 15.5127 11.9999L15.1629 11.6426C14.6673 12.1278 13.7699 12.9518 12.4918 14.0938L12.825 14.4667ZM15.5129 11.9998C16.0481 11.475 16.5127 10.849 16.8966 10.1383L16.4567 9.90063C16.0945 10.5711 15.6593 11.156 15.1628 11.6427L15.5129 11.9998ZM16.8968 10.1378C17.3001 9.38755 17.5013 8.5138 17.5013 7.54583H17.0013C17.0013 8.44412 16.8149 9.2342 16.4564 9.90107L16.8968 10.1378ZM17.5013 7.54567C17.5006 6.31356 17.1506 5.15775 16.4625 4.11258L16.0449 4.38751C16.6802 5.35258 17.0006 6.41319 17.0013 7.54599L17.5013 7.54567Z" fill="black" mask="url(#path-2-outside-1)"/>
</svg>
