<svg xmlns="http://www.w3.org/2000/svg" width="24" height="24" fill="none" viewBox="0 0 24 24">
    <path fill="#21CE99" stroke="#21CE99" stroke-linecap="round" stroke-linejoin="round" stroke-width="2" d="M18 8c0-1.591-.632-3.117-1.757-4.243C15.117 2.632 13.59 2 12 2c-1.591 0-3.117.632-4.243 1.757C6.632 4.883 6 6.41 6 8c0 7-3 9-3 9h18s-3-2-3-9z"/>
    <path fill="#21CE99" d="M13.73 21c-.176.303-.428.555-.732.73-.303.174-.648.267-.998.267s-.695-.093-.998-.267c-.304-.175-.556-.427-.732-.73"/>
    <path stroke="#21CE99" stroke-linecap="round" stroke-linejoin="round" stroke-width="2" d="M13.73 21c-.176.303-.428.555-.732.73-.303.174-.648.267-.998.267s-.695-.093-.998-.267c-.304-.175-.556-.427-.732-.73"/>
</svg>
