<svg width="24" height="24" viewBox="0 0 24 24" fill="none" xmlns="http://www.w3.org/2000/svg">
<path d="M21.7104 20.29L18.0004 16.61C19.4405 14.8144 20.1379 12.5353 19.9492 10.2413C19.7605 7.94733 18.7001 5.81281 16.9859 4.27667C15.2718 2.74053 13.0342 1.91954 10.7333 1.9825C8.43243 2.04546 6.24311 2.98759 4.61553 4.61517C2.98795 6.24275 2.04582 8.43207 1.98286 10.7329C1.9199 13.0338 2.7409 15.2714 4.27704 16.9855C5.81318 18.6997 7.94769 19.7601 10.2417 19.9488C12.5357 20.1375 14.8148 19.4401 16.6104 18L20.2904 21.68C20.3834 21.7738 20.494 21.8481 20.6158 21.8989C20.7377 21.9497 20.8684 21.9758 21.0004 21.9758C21.1324 21.9758 21.2631 21.9497 21.385 21.8989C21.5068 21.8481 21.6174 21.7738 21.7104 21.68C21.8906 21.4936 21.9914 21.2444 21.9914 20.985C21.9914 20.7257 21.8906 20.4765 21.7104 20.29ZM11.0004 18C9.61592 18 8.26255 17.5895 7.1114 16.8203C5.96026 16.0511 5.06305 14.9579 4.53324 13.6788C4.00342 12.3997 3.8648 10.9923 4.1349 9.63439C4.40499 8.27653 5.07168 7.02925 6.05065 6.05028C7.02961 5.07131 8.27689 4.40463 9.63476 4.13453C10.9926 3.86443 12.4001 4.00306 13.6792 4.53287C14.9583 5.06268 16.0515 5.95989 16.8207 7.11103C17.5899 8.26218 18.0004 9.61556 18.0004 11C18.0004 12.8565 17.2629 14.637 15.9501 15.9498C14.6374 17.2625 12.8569 18 11.0004 18Z" fill="#F5F6FA"/>
<path fill-rule="evenodd" clip-rule="evenodd" d="M10.7196 1.48268C13.1483 1.41623 15.5102 2.28283 17.3196 3.90431C19.129 5.52579 20.2483 7.77889 20.4475 10.2003C20.6343 12.4715 19.9983 14.7289 18.6643 16.5643L22.07 19.9425C22.3403 20.2222 22.4914 20.596 22.4914 20.985C22.4914 21.374 22.3403 21.7478 22.0699 22.0275L22.0654 22.0322C21.926 22.1728 21.76 22.2843 21.5773 22.3605C21.3945 22.4366 21.1984 22.4758 21.0004 22.4758C20.8024 22.4758 20.6063 22.4366 20.4235 22.3605C20.2412 22.2845 20.0757 22.1733 19.9364 22.0332L19.9354 22.0321L16.5661 18.6629C14.7305 19.9976 12.4725 20.634 10.2007 20.4472C7.77926 20.248 5.52616 19.1286 3.90468 17.3192C2.2832 15.5099 1.41659 13.148 1.48305 10.7193C1.54951 8.29056 2.54398 5.97962 4.26198 4.26162C5.97998 2.54361 8.29093 1.54914 10.7196 1.48268ZM16.6522 4.64903C15.0333 3.19823 12.92 2.42285 10.747 2.48231C8.57394 2.54177 6.50625 3.43156 4.96909 4.96872C3.43193 6.50588 2.54214 8.57357 2.48268 10.7466C2.42321 12.9197 3.1986 15.0329 4.6494 16.6519C6.10019 18.2708 8.11613 19.2723 10.2827 19.4505C12.4492 19.6287 14.6017 18.9701 16.2976 17.61L16.6471 17.3296L20.6454 21.3279C20.6919 21.3748 20.7472 21.412 20.8081 21.4374C20.869 21.4628 20.9344 21.4758 21.0004 21.4758C21.0664 21.4758 21.1318 21.4628 21.1927 21.4374C21.2526 21.4124 21.3071 21.376 21.3531 21.3302C21.4418 21.2372 21.4914 21.1136 21.4914 20.985C21.4914 20.8568 21.4421 20.7336 21.3539 20.6407L17.3289 16.6482L17.6103 16.2972C18.9704 14.6014 19.6291 12.4489 19.4509 10.2823C19.2727 8.11576 18.2711 6.09983 16.6522 4.64903ZM13.4878 4.99481C12.3001 4.50284 10.9932 4.37412 9.73231 4.62492C8.47143 4.87573 7.31324 5.49479 6.4042 6.40383C5.49516 7.31287 4.87609 8.47106 4.62529 9.73194C4.37448 10.9928 4.50321 12.2997 4.99518 13.4875C5.48715 14.6752 6.32027 15.6904 7.38919 16.4046C8.45811 17.1188 9.71481 17.5 11.0004 17.5C12.7243 17.5 14.3776 16.8152 15.5966 15.5962C16.8156 14.3772 17.5004 12.7239 17.5004 11C17.5004 9.71445 17.1192 8.45774 16.4049 7.38882C15.6907 6.3199 14.6756 5.48678 13.4878 4.99481ZM9.53722 3.64414C10.9921 3.35475 12.5001 3.50327 13.8705 4.07093C15.241 4.63859 16.4123 5.59988 17.2364 6.83325C18.0605 8.06662 18.5004 9.51667 18.5004 11C18.5004 12.9892 17.7102 14.8968 16.3037 16.3033C14.8972 17.7099 12.9895 18.5 11.0004 18.5C9.51703 18.5 8.06698 18.0602 6.83362 17.236C5.60025 16.4119 4.63895 15.2406 4.0713 13.8702C3.50364 12.4997 3.35511 10.9917 3.6445 9.53685C3.93389 8.08199 4.6482 6.74562 5.69709 5.69673C6.74599 4.64783 8.08236 3.93353 9.53722 3.64414Z" fill="#F5F6FA"/>
</svg>
