<svg width="20" height="16" viewBox="0 0 20 16" fill="none" xmlns="http://www.w3.org/2000/svg">
<g clip-path="url(#clip0)">
<path d="M12.6036 10.7828V11.4784C12.6036 11.5799 12.5708 11.6632 12.5052 11.7284C12.4395 11.7936 12.3556 11.8262 12.2535 11.8262H7.35211C7.25 11.8262 7.16612 11.7936 7.10048 11.7284C7.03483 11.6632 7.00201 11.5799 7.00201 11.4784V10.7828C7.00201 10.5509 7.07495 10.348 7.22083 10.1741L10.503 6.26102H7.35211C7.25 6.26102 7.16612 6.22841 7.10048 6.16319C7.03483 6.09797 7.00201 6.01464 7.00201 5.91319V5.21754C7.00201 5.11609 7.03483 5.03276 7.10048 4.96754C7.16612 4.90232 7.25 4.86971 7.35211 4.86971H12.2535C12.3556 4.86971 12.4395 4.90232 12.5052 4.96754C12.5708 5.03276 12.6036 5.11609 12.6036 5.21754V5.91319C12.6036 6.14508 12.5307 6.34797 12.3848 6.52189L9.10262 10.4349H12.2535C12.3556 10.4349 12.4395 10.4675 12.5052 10.5328C12.5708 10.598 12.6036 10.6813 12.6036 10.7828ZM19.6056 14.9567V15.6523C19.6056 15.7538 19.5728 15.8371 19.5072 15.9023C19.4415 15.9675 19.3576 16.0001 19.2555 16.0001H14.3541C14.252 16.0001 14.1681 15.9675 14.1025 15.9023C14.0368 15.8371 14.004 15.7538 14.004 15.6523V14.9567C14.004 14.7248 14.077 14.5219 14.2228 14.348L17.505 10.4349H14.3541C14.252 10.4349 14.1681 10.4023 14.1025 10.3371C14.0368 10.2719 14.004 10.1886 14.004 10.0871V9.39145C14.004 9.29 14.0368 9.20667 14.1025 9.14145C14.1681 9.07624 14.252 9.04363 14.3541 9.04363H19.2555C19.3576 9.04363 19.4415 9.07624 19.5072 9.14145C19.5728 9.20667 19.6056 9.29 19.6056 9.39145V10.0871C19.6056 10.319 19.5327 10.5219 19.3868 10.6958L16.1046 14.6088H19.2555C19.3576 14.6088 19.4415 14.6415 19.5072 14.7067C19.5728 14.7719 19.6056 14.8552 19.6056 14.9567ZM5.60161 6.60884V7.3045C5.60161 7.40595 5.56879 7.48928 5.50314 7.5545C5.4375 7.61971 5.35362 7.65232 5.25151 7.65232H0.350101C0.247988 7.65232 0.16411 7.61971 0.0984658 7.5545C0.0328219 7.48928 0 7.40595 0 7.3045V6.60884C0 6.37696 0.0729376 6.17406 0.218813 6.00015L3.50101 2.08711H0.350101C0.247988 2.08711 0.16411 2.0545 0.0984658 1.98928C0.0328219 1.92406 0 1.84073 0 1.73928V1.04363C0 0.942178 0.0328219 0.858844 0.0984658 0.793627C0.16411 0.728409 0.247988 0.695801 0.350101 0.695801H5.25151C5.35362 0.695801 5.4375 0.728409 5.50314 0.793627C5.56879 0.858844 5.60161 0.942178 5.60161 1.04363V1.73928C5.60161 1.97116 5.52867 2.17406 5.3828 2.34797L2.1006 6.26102H5.25151C5.35362 6.26102 5.4375 6.29363 5.50314 6.35884C5.56879 6.42406 5.60161 6.5074 5.60161 6.60884Z" fill="#F5F6FA"/>
</g>
<defs>
<clipPath id="clip0">
<rect width="19.6056" height="16" fill="white"/>
</clipPath>
</defs>
</svg>