<?xml version="1.0" encoding="UTF-8" standalone="no"?>
<svg
   xmlns:dc="http://purl.org/dc/elements/1.1/"
   xmlns:cc="http://creativecommons.org/ns#"
   xmlns:rdf="http://www.w3.org/1999/02/22-rdf-syntax-ns#"
   xmlns:svg="http://www.w3.org/2000/svg"
   xmlns="http://www.w3.org/2000/svg"
   xmlns:sodipodi="http://sodipodi.sourceforge.net/DTD/sodipodi-0.dtd"
   xmlns:inkscape="http://www.inkscape.org/namespaces/inkscape"
   viewBox="0 0 24 24"
   version="1.1"
   id="svg199"
   sodipodi:docname="active_home.svg"
   inkscape:version="1.0.2 (e86c8708, 2021-01-15)">
  <path
     id="path197"
     d="m 12,1.9765625 c -0.715299,0 -1.430599,0.2543839 -2,0.7636719 L 4,8 C 3.3574443,8.5746702 2.9931475,9.3977462 3,10.259766 V 19 c 0,1.656854 1.3431458,3 3,3 h 4.003906 V 21.91016 C 10.003177,19.600496 10,17.345296 10,15 c 0,-0.552285 0.447715,-1 1,-1 h 2 c 0.552285,0 1,0.447715 1,1 0.09998,2.47556 0.03813,5.239254 0.06837,6.902573 1.07e-4,0.0043 -7.7e-5,0.0052 0,0.01172 0.0019,8.2e-5 -1.31e-4,0.0041 0,0.0059 3.07e-4,0.0041 0,0.0093 0,0.01367 1.24e-4,0.06606 0.0013,0.06241 -0.03516,0.06445 -9.4e-5,7.94e-4 6.2e-5,0.0013 0,0.002 H 18 c 1.656854,0 3,-1.343146 3,-3 V 10.25 C 21.003979,9.3914604 20.639933,8.5723567 20,8 L 14,2.7402344 C 13.430599,2.2309464 12.715299,1.9765625 12,1.9765625 Z m 2.033203,20.0214845 c 0.0025,-0.02075 0.0045,-0.03974 0.002,-0.05078 -0.0014,0.0014 -0.0024,0.0026 -0.0039,0.0039 3.5e-5,0.0019 0.0013,0.0035 0,0.0039 -0.0012,3.44e-4 -0.0027,-3.44e-4 -0.0039,0 -0.0048,0.0039 -0.0041,0.01023 -0.0098,0.01367 0.0052,-6.69e-4 0.0091,-0.0014 0.01367,-0.002 0.0029,0.01567 0.0018,0.01595 0,0.03125 h 0.002 z m -0.002,0 c -5.88e-4,3.4e-5 -0.0031,0.0018 -0.0039,0.002 h 0.0039 c 1.25e-4,-0.0012 -1.1e-4,-9.97e-4 0,-0.002 z m -0.0039,-0.06043 c -0.0044,-5.31e-4 -0.06045,0.0129 -0.07227,0.01563 -0.0044,0.0029 -0.0091,0.0065 -0.01367,0.0098 0.0261,-0.005 0.05193,-0.01117 0.07813,-0.01563 -6.68e-4,-3.83e-4 0.0089,-0.0096 0.0078,-0.0098 z m -0.01953,0.02344 c -0.02325,0.0065 -0.047,0.01122 -0.07031,0.01758 0.03417,-0.0046 0.03524,-0.0042 0.0625,-0.0078 4.08e-4,-10e-4 0.0078,-0.009 0.0078,-0.0098 z m -0.01758,0.02148 c -0.02567,0.01025 -0.05472,0.01404 -0.08398,0.01758 h 0.07031 c 0.0046,-0.006 0.01203,-0.01508 0.01367,-0.01758 z"
     sodipodi:nodetypes="scccsscccsscccccccsscccsccccccccccccccccccccccccccccc" />
</svg>
