<?xml version="1.0" encoding="UTF-8" standalone="no"?>
<svg
   xmlns:dc="http://purl.org/dc/elements/1.1/"
   xmlns:cc="http://creativecommons.org/ns#"
   xmlns:rdf="http://www.w3.org/1999/02/22-rdf-syntax-ns#"
   xmlns:svg="http://www.w3.org/2000/svg"
   xmlns="http://www.w3.org/2000/svg"
   xmlns:sodipodi="http://sodipodi.sourceforge.net/DTD/sodipodi-0.dtd"
   xmlns:inkscape="http://www.inkscape.org/namespaces/inkscape"
   viewBox="0 0 24 24"
   version="1.1"
   id="svg18"
   sodipodi:docname="icon_people_active.svg"
   inkscape:version="1.0.2 (e86c8708, 2021-01-15)">
  <metadata
     id="metadata24">
    <rdf:RDF>
      <cc:Work
         rdf:about="">
        <dc:format>image/svg+xml</dc:format>
        <dc:type
           rdf:resource="http://purl.org/dc/dcmitype/StillImage" />
        <dc:title></dc:title>
      </cc:Work>
    </rdf:RDF>
  </metadata>
  <defs
     id="defs22" />
  <sodipodi:namedview
     pagecolor="#ffffff"
     bordercolor="#666666"
     borderopacity="1"
     objecttolerance="10"
     gridtolerance="10"
     guidetolerance="10"
     inkscape:pageopacity="0"
     inkscape:pageshadow="2"
     inkscape:window-width="1440"
     inkscape:window-height="847"
     id="namedview20"
     showgrid="false"
     showguides="true"
     inkscape:guide-bbox="true"
     inkscape:zoom="26.625"
     inkscape:cx="12"
     inkscape:cy="12"
     inkscape:window-x="0"
     inkscape:window-y="25"
     inkscape:window-maximized="1"
     inkscape:current-layer="svg18" />
  <rect
     width="24"
     height="24"
     opacity="0"
     id="rect10"
     x="0"
     y="0" />
  <path
     d="M 9,11 C 12.563867,11 14.348013,6.6914458 11.828283,4.1717166 9.3085542,1.6519873 5,3.4361328 5,7 c 0,2.209139 1.790861,4 4,4 z m 8,2 C 19.6729,13 21.01101,9.7685843 19.121213,7.8787874 17.231416,5.9889905 14,7.3270996 14,10 c 0,1.656854 1.343146,3 3,3 z m 0,1 c -1.108175,0.0012 -2.184542,0.370569 -3.06,1.05 C 9.5295164,10.656825 2.0084212,13.774867 2,20 c 0,0.668694 0.5030457,1.002024 1.0045615,0.99999 5.1109229,-0.0045 7.9592795,-0.01646 12.0908805,-0.004 C 15.561684,20.95617 16,20.62419 16,20 c 2.52027,-0.07651 3.010801,-0.01407 4.958469,-7.67e-4 C 21.471922,20.018207 22,19.685129 22,19 22,16.238576 19.761424,14 17,14 Z"
     id="path12"
     sodipodi:nodetypes="sssssssscccccccsc" />
</svg>
